<mxfile host="app.diagrams.net" modified="2020-05-12T19:14:38.503Z" agent="5.0 (Macintosh; Intel Mac OS X 10_12_6) AppleWebKit/537.36 (KHTML, like Gecko) Chrome/81.0.4044.138 Safari/537.36" etag="rEmOjKUy0fNSjRQCnLyr" version="13.0.8" type="github">
  <diagram name="Page-1" id="b520641d-4fe3-3701-9064-5fc419738815">
    <mxGraphModel dx="946" dy="646" grid="1" gridSize="10" guides="1" tooltips="1" connect="1" arrows="1" fold="1" page="1" pageScale="1" pageWidth="1100" pageHeight="850" background="#ffffff" math="0" shadow="0">
      <root>
        <mxCell id="0" />
        <mxCell id="1" parent="0" />
        <mxCell id="JuLokaQtnEzh7Riw3Y3C-1" value="" style="ellipse;html=1;shape=startState;fillColor=#000000;strokeColor=#ff0000;" vertex="1" parent="1">
          <mxGeometry x="30" y="200" width="30" height="30" as="geometry" />
        </mxCell>
        <mxCell id="JuLokaQtnEzh7Riw3Y3C-2" value="" style="edgeStyle=orthogonalEdgeStyle;html=1;verticalAlign=bottom;endArrow=open;endSize=8;strokeColor=#ff0000;" edge="1" source="JuLokaQtnEzh7Riw3Y3C-1" parent="1">
          <mxGeometry relative="1" as="geometry">
            <mxPoint x="100" y="215" as="targetPoint" />
          </mxGeometry>
        </mxCell>
        <mxCell id="21ea969265ad0168-6" value="Dashboard" style="swimlane;html=1;fontStyle=0;childLayout=stackLayout;horizontal=1;startSize=26;fillColor=#e0e0e0;horizontalStack=0;resizeParent=1;resizeLast=0;collapsible=1;marginBottom=0;swimlaneFillColor=#ffffff;align=center;rounded=1;shadow=0;comic=0;labelBackgroundColor=none;strokeWidth=1;fontFamily=Verdana;fontSize=12" parent="1" vertex="1">
          <mxGeometry x="140" y="74" width="110" height="52" as="geometry" />
        </mxCell>
        <mxCell id="21ea969265ad0168-7" value="Idle" style="text;html=1;strokeColor=none;fillColor=none;spacingLeft=4;spacingRight=4;whiteSpace=wrap;overflow=hidden;rotatable=0;points=[[0,0.5],[1,0.5]];portConstraint=eastwest;" parent="21ea969265ad0168-6" vertex="1">
          <mxGeometry y="26" width="110" height="26" as="geometry" />
        </mxCell>
        <mxCell id="JuLokaQtnEzh7Riw3Y3C-3" value="" style="endArrow=classic;html=1;exitX=1.006;exitY=-0.077;exitDx=0;exitDy=0;exitPerimeter=0;" edge="1" parent="1" source="21ea969265ad0168-7">
          <mxGeometry width="50" height="50" relative="1" as="geometry">
            <mxPoint x="290" y="214.5" as="sourcePoint" />
            <mxPoint x="390" y="214.5" as="targetPoint" />
          </mxGeometry>
        </mxCell>
        <mxCell id="JuLokaQtnEzh7Riw3Y3C-4" value="Settings" style="swimlane;html=1;fontStyle=0;childLayout=stackLayout;horizontal=1;startSize=26;fillColor=#e0e0e0;horizontalStack=0;resizeParent=1;resizeLast=0;collapsible=1;marginBottom=0;swimlaneFillColor=#ffffff;align=center;rounded=1;shadow=0;comic=0;labelBackgroundColor=none;strokeWidth=1;fontFamily=Verdana;fontSize=12" vertex="1" parent="1">
          <mxGeometry x="390" y="190" width="160" height="60" as="geometry" />
        </mxCell>
        <mxCell id="JuLokaQtnEzh7Riw3Y3C-5" value="idle" style="text;html=1;strokeColor=none;fillColor=none;spacingLeft=4;spacingRight=4;whiteSpace=wrap;overflow=hidden;rotatable=0;points=[[0,0.5],[1,0.5]];portConstraint=eastwest;" vertex="1" parent="JuLokaQtnEzh7Riw3Y3C-4">
          <mxGeometry y="26" width="160" height="26" as="geometry" />
        </mxCell>
        <mxCell id="JuLokaQtnEzh7Riw3Y3C-7" value="click Settings" style="text;html=1;strokeColor=none;fillColor=none;align=center;verticalAlign=middle;whiteSpace=wrap;rounded=0;" vertex="1" parent="1">
          <mxGeometry x="280" y="190" width="90" height="20" as="geometry" />
        </mxCell>
        <mxCell id="JuLokaQtnEzh7Riw3Y3C-10" value="" style="endArrow=classic;html=1;" edge="1" parent="1">
          <mxGeometry width="50" height="50" relative="1" as="geometry">
            <mxPoint x="550" y="219.5" as="sourcePoint" />
            <mxPoint x="690" y="219.5" as="targetPoint" />
          </mxGeometry>
        </mxCell>
        <mxCell id="JuLokaQtnEzh7Riw3Y3C-11" value="Update Information" style="text;html=1;strokeColor=none;fillColor=none;align=center;verticalAlign=middle;whiteSpace=wrap;rounded=0;" vertex="1" parent="1">
          <mxGeometry x="550" y="200" width="130" height="20" as="geometry" />
        </mxCell>
        <mxCell id="JuLokaQtnEzh7Riw3Y3C-17" value="" style="edgeStyle=segmentEdgeStyle;endArrow=classic;html=1;" edge="1" parent="1">
          <mxGeometry width="50" height="50" relative="1" as="geometry">
            <mxPoint x="510" y="200" as="sourcePoint" />
            <mxPoint x="450" y="190" as="targetPoint" />
            <Array as="points">
              <mxPoint x="520" y="200" />
              <mxPoint x="520" y="140" />
            </Array>
          </mxGeometry>
        </mxCell>
        <mxCell id="JuLokaQtnEzh7Riw3Y3C-19" value="Invalid input" style="text;html=1;strokeColor=none;fillColor=none;align=center;verticalAlign=middle;whiteSpace=wrap;rounded=0;" vertex="1" parent="1">
          <mxGeometry x="460" y="120" width="90" height="10" as="geometry" />
        </mxCell>
        <mxCell id="JuLokaQtnEzh7Riw3Y3C-20" value="" style="ellipse;html=1;shape=endState;fillColor=#000000;strokeColor=#ff0000;" vertex="1" parent="1">
          <mxGeometry x="725" y="560" width="30" height="30" as="geometry" />
        </mxCell>
        <mxCell id="JuLokaQtnEzh7Riw3Y3C-25" value="Update picture" style="text;html=1;strokeColor=none;fillColor=none;align=center;verticalAlign=middle;whiteSpace=wrap;rounded=0;" vertex="1" parent="1">
          <mxGeometry x="460" y="270" width="50" height="20" as="geometry" />
        </mxCell>
        <mxCell id="JuLokaQtnEzh7Riw3Y3C-26" value="" style="endArrow=classic;html=1;" edge="1" parent="1">
          <mxGeometry width="50" height="50" relative="1" as="geometry">
            <mxPoint x="460" y="250" as="sourcePoint" />
            <mxPoint x="460" y="350" as="targetPoint" />
          </mxGeometry>
        </mxCell>
        <mxCell id="JuLokaQtnEzh7Riw3Y3C-27" value="Picture" style="swimlane;html=1;fontStyle=0;childLayout=stackLayout;horizontal=1;startSize=26;fillColor=#e0e0e0;horizontalStack=0;resizeParent=1;resizeLast=0;collapsible=1;marginBottom=0;swimlaneFillColor=#ffffff;align=center;rounded=1;shadow=0;comic=0;labelBackgroundColor=none;strokeWidth=1;fontFamily=Verdana;fontSize=12" vertex="1" parent="1">
          <mxGeometry x="390" y="350" width="160" height="60" as="geometry" />
        </mxCell>
        <mxCell id="JuLokaQtnEzh7Riw3Y3C-28" value="updated" style="text;html=1;strokeColor=none;fillColor=none;spacingLeft=4;spacingRight=4;whiteSpace=wrap;overflow=hidden;rotatable=0;points=[[0,0.5],[1,0.5]];portConstraint=eastwest;" vertex="1" parent="JuLokaQtnEzh7Riw3Y3C-27">
          <mxGeometry y="26" width="160" height="26" as="geometry" />
        </mxCell>
        <mxCell id="JuLokaQtnEzh7Riw3Y3C-30" value="" style="edgeStyle=segmentEdgeStyle;endArrow=classic;html=1;" edge="1" parent="1">
          <mxGeometry width="50" height="50" relative="1" as="geometry">
            <mxPoint x="430" y="410" as="sourcePoint" />
            <mxPoint x="510" y="410" as="targetPoint" />
            <Array as="points">
              <mxPoint x="430" y="440" />
              <mxPoint x="510" y="440" />
            </Array>
          </mxGeometry>
        </mxCell>
        <mxCell id="JuLokaQtnEzh7Riw3Y3C-31" value="update failed" style="text;html=1;strokeColor=none;fillColor=none;align=center;verticalAlign=middle;whiteSpace=wrap;rounded=0;" vertex="1" parent="1">
          <mxGeometry x="430" y="450" width="80" height="20" as="geometry" />
        </mxCell>
        <mxCell id="JuLokaQtnEzh7Riw3Y3C-32" value="Personal Information" style="swimlane;html=1;fontStyle=0;childLayout=stackLayout;horizontal=1;startSize=26;fillColor=#e0e0e0;horizontalStack=0;resizeParent=1;resizeLast=0;collapsible=1;marginBottom=0;swimlaneFillColor=#ffffff;align=center;rounded=1;shadow=0;comic=0;labelBackgroundColor=none;strokeWidth=1;fontFamily=Verdana;fontSize=12" vertex="1" parent="1">
          <mxGeometry x="690" y="185" width="160" height="60" as="geometry" />
        </mxCell>
        <mxCell id="JuLokaQtnEzh7Riw3Y3C-33" value="updated" style="text;html=1;strokeColor=none;fillColor=none;spacingLeft=4;spacingRight=4;whiteSpace=wrap;overflow=hidden;rotatable=0;points=[[0,0.5],[1,0.5]];portConstraint=eastwest;" vertex="1" parent="JuLokaQtnEzh7Riw3Y3C-32">
          <mxGeometry y="26" width="160" height="26" as="geometry" />
        </mxCell>
        <mxCell id="JuLokaQtnEzh7Riw3Y3C-34" value="" style="edgeStyle=segmentEdgeStyle;endArrow=classic;html=1;entryX=0.75;entryY=0;entryDx=0;entryDy=0;exitX=0.25;exitY=0;exitDx=0;exitDy=0;" edge="1" parent="1" source="JuLokaQtnEzh7Riw3Y3C-32" target="JuLokaQtnEzh7Riw3Y3C-32">
          <mxGeometry width="50" height="50" relative="1" as="geometry">
            <mxPoint x="730" y="180" as="sourcePoint" />
            <mxPoint x="810" y="120" as="targetPoint" />
            <Array as="points">
              <mxPoint x="730" y="150" />
              <mxPoint x="810" y="150" />
            </Array>
          </mxGeometry>
        </mxCell>
        <mxCell id="JuLokaQtnEzh7Riw3Y3C-35" value="update failed" style="text;html=1;strokeColor=none;fillColor=none;align=center;verticalAlign=middle;whiteSpace=wrap;rounded=0;" vertex="1" parent="1">
          <mxGeometry x="730" y="130" width="80" height="20" as="geometry" />
        </mxCell>
        <mxCell id="JuLokaQtnEzh7Riw3Y3C-36" value="" style="shape=line;html=1;strokeWidth=6;strokeColor=#000000;" vertex="1" parent="1">
          <mxGeometry x="640" y="400" width="200" height="10" as="geometry" />
        </mxCell>
        <mxCell id="JuLokaQtnEzh7Riw3Y3C-37" value="" style="edgeStyle=orthogonalEdgeStyle;html=1;verticalAlign=bottom;endArrow=open;endSize=8;strokeColor=#33001A;" edge="1" source="JuLokaQtnEzh7Riw3Y3C-36" parent="1">
          <mxGeometry relative="1" as="geometry">
            <mxPoint x="740" y="440" as="targetPoint" />
          </mxGeometry>
        </mxCell>
        <mxCell id="JuLokaQtnEzh7Riw3Y3C-38" value="" style="endArrow=classic;html=1;strokeColor=#33001A;exitX=1.006;exitY=-0.154;exitDx=0;exitDy=0;exitPerimeter=0;entryX=0.315;entryY=0.3;entryDx=0;entryDy=0;entryPerimeter=0;" edge="1" parent="1" source="JuLokaQtnEzh7Riw3Y3C-28" target="JuLokaQtnEzh7Riw3Y3C-36">
          <mxGeometry width="50" height="50" relative="1" as="geometry">
            <mxPoint x="610" y="380" as="sourcePoint" />
            <mxPoint x="670" y="360" as="targetPoint" />
            <Array as="points">
              <mxPoint x="703" y="372" />
            </Array>
          </mxGeometry>
        </mxCell>
        <mxCell id="JuLokaQtnEzh7Riw3Y3C-39" value="" style="endArrow=classic;html=1;strokeColor=#33001A;" edge="1" parent="1" target="JuLokaQtnEzh7Riw3Y3C-36">
          <mxGeometry width="50" height="50" relative="1" as="geometry">
            <mxPoint x="740" y="240" as="sourcePoint" />
            <mxPoint x="795" y="280" as="targetPoint" />
          </mxGeometry>
        </mxCell>
        <mxCell id="JuLokaQtnEzh7Riw3Y3C-21" value="Settings" style="swimlane;html=1;fontStyle=0;childLayout=stackLayout;horizontal=1;startSize=26;fillColor=#e0e0e0;horizontalStack=0;resizeParent=1;resizeLast=0;collapsible=1;marginBottom=0;swimlaneFillColor=#ffffff;align=center;rounded=1;shadow=0;comic=0;labelBackgroundColor=none;strokeWidth=1;fontFamily=Verdana;fontSize=12" vertex="1" parent="1">
          <mxGeometry x="670" y="440" width="160" height="60" as="geometry" />
        </mxCell>
        <mxCell id="JuLokaQtnEzh7Riw3Y3C-22" value="updated" style="text;html=1;strokeColor=none;fillColor=none;spacingLeft=4;spacingRight=4;whiteSpace=wrap;overflow=hidden;rotatable=0;points=[[0,0.5],[1,0.5]];portConstraint=eastwest;" vertex="1" parent="JuLokaQtnEzh7Riw3Y3C-21">
          <mxGeometry y="26" width="160" height="26" as="geometry" />
        </mxCell>
        <mxCell id="JuLokaQtnEzh7Riw3Y3C-40" value="" style="endArrow=classic;html=1;strokeColor=#33001A;" edge="1" parent="1">
          <mxGeometry width="50" height="50" relative="1" as="geometry">
            <mxPoint x="739.5" y="500" as="sourcePoint" />
            <mxPoint x="739.5" y="560" as="targetPoint" />
          </mxGeometry>
        </mxCell>
        <mxCell id="Hgtj_GoyG-KB-VZRIQT7-10" value="authentication failed" style="text;html=1;strokeColor=none;fillColor=none;align=center;verticalAlign=middle;whiteSpace=wrap;rounded=0;" vertex="1" parent="1">
          <mxGeometry x="550" y="20" width="70" height="30" as="geometry" />
        </mxCell>
        <mxCell id="Hgtj_GoyG-KB-VZRIQT7-11" value="DataEntered [correctInput]" style="text;html=1;strokeColor=none;fillColor=none;align=center;verticalAlign=middle;whiteSpace=wrap;rounded=0;" vertex="1" parent="1">
          <mxGeometry x="580" y="106" width="80" height="20" as="geometry" />
        </mxCell>
        <mxCell id="Hgtj_GoyG-KB-VZRIQT7-16" value="" style="ellipse;html=1;shape=endState;fillColor=#000000;strokeColor=#ff0000;" vertex="1" parent="1">
          <mxGeometry x="890" y="85" width="30" height="30" as="geometry" />
        </mxCell>
        <mxCell id="Hgtj_GoyG-KB-VZRIQT7-17" value="" style="ellipse;html=1;shape=startState;fillColor=#000000;strokeColor=#ff0000;" vertex="1" parent="1">
          <mxGeometry x="70" y="85" width="30" height="30" as="geometry" />
        </mxCell>
        <mxCell id="Hgtj_GoyG-KB-VZRIQT7-18" value="" style="edgeStyle=orthogonalEdgeStyle;html=1;verticalAlign=bottom;endArrow=open;endSize=8;strokeColor=#ff0000;" edge="1" parent="1" source="Hgtj_GoyG-KB-VZRIQT7-17">
          <mxGeometry relative="1" as="geometry">
            <mxPoint x="160" y="100" as="targetPoint" />
          </mxGeometry>
        </mxCell>
        <mxCell id="Hgtj_GoyG-KB-VZRIQT7-23" value="" style="endArrow=classic;html=1;" edge="1" parent="1">
          <mxGeometry width="50" height="50" relative="1" as="geometry">
            <mxPoint x="840" y="99.5" as="sourcePoint" />
            <mxPoint x="895.5" y="99.5" as="targetPoint" />
          </mxGeometry>
        </mxCell>
        <mxCell id="Hgtj_GoyG-KB-VZRIQT7-26" value="Enter Username,password" style="text;html=1;strokeColor=none;fillColor=none;align=center;verticalAlign=middle;whiteSpace=wrap;rounded=0;" vertex="1" parent="1">
          <mxGeometry x="250" y="74" width="110" height="20" as="geometry" />
        </mxCell>
        <mxCell id="Hgtj_GoyG-KB-VZRIQT7-27" value="" style="edgeStyle=segmentEdgeStyle;endArrow=classic;html=1;" edge="1" parent="1">
          <mxGeometry width="50" height="50" relative="1" as="geometry">
            <mxPoint x="540" y="90" as="sourcePoint" />
            <mxPoint x="490" y="70" as="targetPoint" />
            <Array as="points">
              <mxPoint x="540" y="90" />
              <mxPoint x="560" y="90" />
              <mxPoint x="560" y="30" />
              <mxPoint x="490" y="30" />
            </Array>
          </mxGeometry>
        </mxCell>
        <mxCell id="Hgtj_GoyG-KB-VZRIQT7-28" value="" style="endArrow=classic;html=1;" edge="1" parent="1">
          <mxGeometry width="50" height="50" relative="1" as="geometry">
            <mxPoint x="540" y="95.5" as="sourcePoint" />
            <mxPoint x="680" y="96" as="targetPoint" />
            <Array as="points">
              <mxPoint x="580" y="96" />
            </Array>
          </mxGeometry>
        </mxCell>
        <mxCell id="Hgtj_GoyG-KB-VZRIQT7-5" value="Dashboard displayed" style="swimlane;html=1;fontStyle=0;childLayout=stackLayout;horizontal=1;startSize=26;fillColor=#e0e0e0;horizontalStack=0;resizeParent=1;resizeLast=0;collapsible=1;marginBottom=0;swimlaneFillColor=#ffffff;align=center;rounded=1;shadow=0;comic=0;labelBackgroundColor=none;strokeWidth=1;fontFamily=Verdana;fontSize=12" vertex="1" parent="1">
          <mxGeometry x="680" y="74" width="160" height="52" as="geometry" />
        </mxCell>
        <mxCell id="Hgtj_GoyG-KB-VZRIQT7-6" value="do:display dashboard" style="text;html=1;strokeColor=none;fillColor=none;spacingLeft=4;spacingRight=4;whiteSpace=wrap;overflow=hidden;rotatable=0;points=[[0,0.5],[1,0.5]];portConstraint=eastwest;" vertex="1" parent="Hgtj_GoyG-KB-VZRIQT7-5">
          <mxGeometry y="26" width="160" height="26" as="geometry" />
        </mxCell>
        <mxCell id="Hgtj_GoyG-KB-VZRIQT7-1" value="Logging in" style="swimlane;html=1;fontStyle=0;childLayout=stackLayout;horizontal=1;startSize=26;fillColor=#e0e0e0;horizontalStack=0;resizeParent=1;resizeLast=0;collapsible=1;marginBottom=0;swimlaneFillColor=#ffffff;align=center;rounded=1;shadow=0;comic=0;labelBackgroundColor=none;strokeWidth=1;fontFamily=Verdana;fontSize=12" vertex="1" parent="1">
          <mxGeometry x="370" y="74" width="170" height="60" as="geometry" />
        </mxCell>
        <mxCell id="Hgtj_GoyG-KB-VZRIQT7-2" value="do:read Input&lt;br&gt;exit:validate data" style="text;html=1;strokeColor=none;fillColor=none;spacingLeft=4;spacingRight=4;whiteSpace=wrap;overflow=hidden;rotatable=0;points=[[0,0.5],[1,0.5]];portConstraint=eastwest;" vertex="1" parent="Hgtj_GoyG-KB-VZRIQT7-1">
          <mxGeometry y="26" width="170" height="34" as="geometry" />
        </mxCell>
      </root>
    </mxGraphModel>
  </diagram>
</mxfile>
